<svg xmlns="http://www.w3.org/2000/svg" width="290" height="315" fill="none"><mask id="a" width="290" height="315" x="0" y="0" maskUnits="userSpaceOnUse" style="mask-type:alpha"><path fill="#A1CCC9" d="M0 0h290v315H0z"/></mask><g stroke="#80C3B1" stroke-width="1.5" mask="url(#a)"><path d="M173.502 15.802c.994-1.184 2.517-1.952 4.609-2.266 2.099-.315 4.721-.163 7.823.457 6.202 1.24 14.162 4.318 23.353 8.994 18.369 9.345 41.5 24.99 65.022 44.729 23.523 19.737 42.948 39.8 55.341 56.267 6.2 8.239 10.614 15.544 12.912 21.437 1.149 2.946 1.754 5.503 1.808 7.624.055 2.115-.438 3.749-1.431 4.933s-2.517 1.952-4.609 2.266c-2.099.315-4.721.163-7.823-.457-6.202-1.24-14.162-4.318-23.353-8.994-18.369-9.345-41.5-24.991-65.022-44.729-23.523-19.737-42.948-39.8-55.341-56.267-6.2-8.24-10.614-15.544-12.912-21.437-1.149-2.947-1.754-5.503-1.808-7.624-.055-2.115.438-3.749 1.431-4.933Z" opacity=".034"/><path d="M180.02 7.8c1.093-1.093 2.678-1.726 4.789-1.856 2.118-.13 4.717.25 7.753 1.137 6.07 1.776 13.732 5.536 22.48 10.995 17.485 10.91 39.164 28.513 60.877 50.226s39.315 43.391 50.226 60.876c5.458 8.748 9.219 16.411 10.994 22.481.888 3.035 1.268 5.635 1.137 7.752-.13 2.112-.763 3.697-1.856 4.79s-2.677 1.725-4.789 1.856c-2.118.13-4.717-.25-7.752-1.137-6.071-1.776-13.733-5.537-22.481-10.995-17.485-10.911-39.164-28.513-60.877-50.226-21.712-21.713-39.315-43.392-50.225-60.877-5.459-8.748-9.22-16.41-10.995-22.48-.888-3.036-1.268-5.635-1.137-7.753.13-2.111.763-3.696 1.856-4.789Z" opacity=".069"/><path d="M187.133.394c1.184-.994 2.818-1.486 4.933-1.432 2.121.055 4.677.66 7.624 1.808 5.892 2.298 13.198 6.713 21.437 12.913 16.467 12.393 36.529 31.817 56.267 55.34s35.384 46.653 44.729 65.023c4.675 9.19 7.754 17.151 8.994 23.353.62 3.101.771 5.724.457 7.822-.314 2.092-1.083 3.616-2.267 4.609-1.184.994-2.818 1.486-4.932 1.432-2.121-.055-4.678-.66-7.624-1.809-5.893-2.297-13.198-6.712-21.437-12.912-16.468-12.393-36.53-31.818-56.268-55.34-19.737-23.523-35.383-46.653-44.729-65.023-4.675-9.19-7.754-17.151-8.993-23.353-.62-3.101-.772-5.724-.457-7.822.314-2.092 1.082-3.616 2.266-4.61Z" opacity=".103"/><path d="M194.787-6.37c1.266-.886 2.937-1.234 5.039-.995 2.108.239 4.602 1.064 7.437 2.466 5.67 2.802 12.563 7.836 20.23 14.73 15.325 13.782 33.618 34.881 51.23 60.035 17.613 25.153 31.184 49.559 38.892 68.673 3.857 9.563 6.23 17.762 6.924 24.048.347 3.144.27 5.77-.226 7.833-.495 2.056-1.394 3.507-2.66 4.394-1.266.886-2.937 1.234-5.039.996-2.108-.239-4.602-1.064-7.437-2.466-5.67-2.802-12.563-7.837-20.23-14.731-15.324-13.781-33.617-34.881-51.23-60.034-17.612-25.154-31.183-49.56-38.891-68.674-3.857-9.562-6.23-17.761-6.924-24.048-.348-3.143-.27-5.77.226-7.832.495-2.057 1.393-3.508 2.659-4.394Z" opacity=".138"/><path d="M202.925-12.442c1.338-.772 3.033-.973 5.106-.553 2.079.422 4.492 1.462 7.194 3.105 5.404 3.286 11.832 8.902 18.869 16.438 14.065 15.065 30.45 37.678 45.803 64.27 15.353 26.594 26.745 52.09 32.758 71.803 3.009 9.862 4.658 18.237 4.802 24.56.072 3.162-.234 5.771-.908 7.782-.673 2.006-1.694 3.373-3.033 4.146s-3.033.974-5.106.553c-2.079-.422-4.492-1.461-7.194-3.104-5.404-3.287-11.832-8.902-18.869-16.439-14.065-15.064-30.45-37.678-45.803-64.27-15.353-26.593-26.745-52.09-32.758-71.802-3.009-9.863-4.658-18.237-4.802-24.56-.072-3.162.234-5.771.908-7.783.673-2.006 1.694-3.373 3.033-4.146Z" opacity=".172"/><path d="M211.482-17.785c1.401-.653 3.107-.706 5.135-.106 2.035.601 4.348 1.847 6.897 3.72 5.097 3.744 11.011 9.899 17.364 18.02 12.699 16.233 27.05 40.188 40.027 68.018s22.104 54.221 26.376 74.384c2.137 10.087 3.051 18.573 2.643 24.885-.204 3.156-.736 5.728-1.583 7.674-.845 1.939-1.982 3.212-3.382 3.865s-3.107.706-5.136.106c-2.034-.601-4.347-1.847-6.896-3.72-5.097-3.744-11.011-9.899-17.364-18.02-12.699-16.233-27.05-40.188-40.027-68.018S213.432 38.802 209.16 18.64c-2.137-10.087-3.051-18.573-2.643-24.885.204-3.156.736-5.728 1.583-7.674.845-1.94 1.982-3.212 3.382-3.865Z" opacity=".207"/><path d="M220.395-22.367c1.453-.528 3.157-.432 5.125.342 1.975.777 4.17 2.22 6.546 4.307 4.751 4.175 10.106 10.821 15.728 19.465 11.235 17.278 23.444 42.393 33.946 71.248 10.503 28.855 17.294 55.942 19.793 76.399 1.25 10.236 1.42 18.769.464 25.021-.479 3.127-1.233 5.643-2.246 7.507-1.011 1.859-2.254 3.027-3.706 3.556-1.453.529-3.156.432-5.125-.342-1.975-.776-4.17-2.219-6.546-4.307-4.751-4.174-10.106-10.821-15.727-19.465-11.236-17.278-23.445-42.393-33.947-71.248-10.502-28.854-17.294-55.941-19.793-76.399-1.25-10.235-1.42-18.769-.464-25.02.479-3.127 1.233-5.643 2.246-7.507 1.011-1.86 2.254-3.028 3.706-3.557Z" opacity=".241"/><path d="M229.597-26.156c1.493-.4 3.182-.156 5.076.787 1.899.946 3.96 2.575 6.145 4.861 4.37 4.573 9.125 11.661 13.972 20.762 9.687 18.191 19.66 44.275 27.608 73.935 7.947 29.661 12.352 57.236 13.058 77.834.353 10.305-.221 18.821-1.719 24.966-.748 3.073-1.719 5.514-2.891 7.282-1.169 1.764-2.509 2.82-4.002 3.22s-3.182.156-5.076-.787c-1.899-.946-3.96-2.575-6.145-4.861-4.369-4.573-9.125-11.661-13.971-20.762-9.688-18.191-19.661-44.275-27.608-73.935-7.948-29.66-12.352-57.236-13.059-77.834-.353-10.305.221-18.821 1.719-24.966.749-3.073 1.719-5.514 2.891-7.282 1.169-1.764 2.51-2.82 4.002-3.22Z" opacity=".276"/><path d="M239.016-29.133c1.522-.269 3.183.122 4.987 1.226 1.81 1.108 3.721 2.91 5.699 5.378 3.954 4.936 8.073 12.412 12.108 21.901 8.065 18.966 15.727 45.82 21.059 76.06s7.317 58.095 6.225 78.676c-.546 10.296-1.86 18.73-3.888 24.721-1.013 2.996-2.193 5.343-3.515 7.003-1.318 1.654-2.745 2.59-4.267 2.858s-3.183-.122-4.988-1.227c-1.809-1.107-3.721-2.909-5.698-5.378-3.954-4.936-8.074-12.411-12.109-21.9-8.065-18.967-15.727-45.82-21.059-76.06s-7.316-58.095-6.225-78.676c.546-10.297 1.861-18.73 3.888-24.721 1.014-2.996 2.194-5.343 3.515-7.003 1.318-1.655 2.746-2.59 4.268-2.858Z" opacity=".31"/><path d="M248.582-31.281c1.54-.135 3.161.399 4.862 1.656 1.706 1.262 3.453 3.223 5.208 5.855 3.509 5.262 6.961 13.068 10.153 22.872 6.382 19.597 11.674 47.016 14.35 77.606s2.226 58.512-.655 78.919c-1.442 10.21-3.486 18.497-6.028 24.288-1.271 2.896-2.651 5.132-4.112 6.67-1.457 1.534-2.961 2.341-4.501 2.476-1.539.134-3.16-.4-4.861-1.657-1.707-1.261-3.454-3.223-5.208-5.854-3.509-5.262-6.961-13.068-10.154-22.873-6.381-19.597-11.674-47.016-14.35-77.606s-2.225-58.511.656-78.919c1.441-10.21 3.486-18.497 6.028-24.288 1.271-2.896 2.65-5.131 4.112-6.67 1.457-1.533 2.96-2.34 4.5-2.475Z" opacity=".345"/><path d="M258.22-32.592c1.546 0 3.114.673 4.699 2.074 1.59 1.405 3.159 3.512 4.678 6.286 3.037 5.548 5.796 13.625 8.122 23.67 4.649 20.08 7.531 47.855 7.531 78.562s-2.882 58.483-7.531 78.561c-2.326 10.046-5.085 18.123-8.122 23.671-1.519 2.774-3.088 4.881-4.678 6.286-1.585 1.401-3.153 2.074-4.699 2.074s-3.114-.673-4.699-2.074c-1.59-1.405-3.159-3.512-4.678-6.286-3.037-5.548-5.795-13.625-8.121-23.671-4.649-20.078-7.532-47.854-7.532-78.561s2.883-58.483 7.532-78.561c2.326-10.046 5.084-18.123 8.121-23.67 1.519-2.775 3.088-4.882 4.678-6.287 1.585-1.4 3.154-2.074 4.699-2.074Z" opacity=".379"/><path d="M267.859-33.06c1.54.135 3.044.942 4.501 2.476 1.461 1.538 2.841 3.773 4.112 6.67 2.542 5.79 4.586 14.078 6.028 24.288 2.881 20.407 3.331 48.329.655 78.918s-7.968 58.009-14.35 77.606c-3.192 9.805-6.644 17.611-10.153 22.873-1.755 2.631-3.502 4.593-5.208 5.854-1.701 1.258-3.322 1.792-4.862 1.657s-3.043-.942-4.5-2.476c-1.462-1.538-2.841-3.773-4.112-6.669-2.542-5.792-4.587-14.079-6.028-24.289-2.881-20.407-3.332-48.329-.656-78.919s7.969-58.008 14.35-77.606c3.193-9.804 6.645-17.61 10.154-22.872 1.754-2.631 3.501-4.593 5.208-5.854 1.701-1.258 3.322-1.792 4.861-1.657Z" opacity=".414"/><path d="M277.425-32.69c1.522.268 2.949 1.204 4.267 2.859 1.322 1.66 2.501 4.006 3.515 7.002 2.028 5.991 3.342 14.425 3.888 24.722 1.092 20.58-.893 48.435-6.225 78.675s-12.994 57.094-21.059 76.06c-4.035 9.489-8.154 16.965-12.109 21.901-1.977 2.468-3.888 4.27-5.698 5.378-1.804 1.104-3.466 1.495-4.988 1.227-1.522-.269-2.949-1.204-4.267-2.859-1.322-1.66-2.501-4.007-3.515-7.003-2.028-5.991-3.342-14.424-3.888-24.721-1.092-20.581.893-48.435 6.225-78.675s12.994-57.094 21.059-76.06c4.035-9.49 8.154-16.965 12.109-21.901 1.977-2.469 3.888-4.27 5.698-5.378 1.804-1.105 3.465-1.495 4.988-1.227Z" opacity=".448"/><path d="M286.844-31.49c1.493.4 2.833 1.456 4.002 3.22 1.172 1.768 2.143 4.209 2.891 7.282 1.498 6.144 2.072 14.66 1.719 24.966-.706 20.598-5.111 48.173-13.058 77.834-7.948 29.66-17.921 55.743-27.608 73.935-4.847 9.101-9.602 16.189-13.972 20.762-2.185 2.286-4.246 3.915-6.145 4.861-1.894.943-3.583 1.187-5.076.787s-2.833-1.456-4.002-3.22c-1.172-1.768-2.142-4.209-2.891-7.282-1.498-6.145-2.072-14.661-1.719-24.966.707-20.598 5.111-48.173 13.059-77.834 7.947-29.66 17.92-55.744 27.608-73.935 4.846-9.101 9.602-16.19 13.971-20.762 2.185-2.287 4.246-3.915 6.145-4.86 1.894-.944 3.583-1.188 5.076-.788Z" opacity=".483"/><path d="M296.045-29.478c1.452.528 2.696 1.697 3.706 3.556 1.013 1.864 1.768 4.38 2.246 7.506.956 6.252.786 14.786-.464 25.021-2.499 20.458-9.29 47.545-19.792 76.4s-22.711 53.97-33.947 71.247c-5.622 8.644-10.977 15.291-15.728 19.466-2.376 2.087-4.571 3.53-6.546 4.306-1.968.775-3.672.871-5.124.342-1.453-.528-2.696-1.697-3.706-3.556-1.014-1.864-1.768-4.38-2.246-7.506-.957-6.252-.787-14.786.464-25.021 2.498-20.458 9.29-47.545 19.792-76.4 10.502-28.854 22.711-53.97 33.947-71.247 5.621-8.644 10.976-15.291 15.727-19.466 2.376-2.087 4.572-3.53 6.546-4.306 1.969-.775 3.673-.87 5.125-.342Z" opacity=".517"/><path d="M304.958-26.675c1.401.653 2.538 1.926 3.382 3.866.848 1.945 1.38 4.517 1.584 7.674.407 6.311-.506 14.798-2.643 24.885-4.273 20.162-13.399 46.554-26.376 74.383-12.977 27.83-27.328 51.785-40.027 68.018-6.354 8.121-12.268 14.276-17.365 18.021-2.548 1.872-4.861 3.118-6.896 3.72-2.028.599-3.734.547-5.135-.106-1.401-.654-2.537-1.926-3.382-3.866-.847-1.945-1.379-4.518-1.583-7.674-.408-6.311.505-14.798 2.643-24.885 4.272-20.162 13.398-46.554 26.376-74.384 12.977-27.83 27.328-51.785 40.027-68.018 6.353-8.12 12.267-14.276 17.364-18.02 2.549-1.872 4.862-3.118 6.896-3.72 2.029-.6 3.735-.547 5.135.106Z" opacity=".552"/><path d="M313.516-23.11c1.339.774 2.36 2.14 3.033 4.147.674 2.011.98 4.62.908 7.782-.144 6.323-1.793 14.698-4.802 24.56-6.013 19.713-17.405 45.21-32.758 71.802s-31.738 49.206-45.803 64.271c-7.037 7.536-13.465 13.152-18.869 16.438-2.702 1.643-5.115 2.683-7.194 3.105-2.073.42-3.768.219-5.106-.553-1.339-.773-2.36-2.14-3.033-4.146-.674-2.012-.98-4.621-.908-7.783.144-6.323 1.793-14.697 4.802-24.56 6.013-19.713 17.405-45.209 32.758-71.802 15.353-26.592 31.738-49.206 45.803-64.27 7.037-7.537 13.465-13.153 18.869-16.439 2.702-1.643 5.115-2.683 7.194-3.104 2.073-.421 3.768-.22 5.106.553Z" opacity=".586"/><path d="M321.653-18.813c1.266.886 2.164 2.337 2.659 4.394.497 2.063.574 4.688.227 7.832-.695 6.286-3.068 14.485-6.924 24.048-7.709 19.114-21.279 43.52-38.892 68.674-17.613 25.153-35.905 46.252-51.23 60.033-7.667 6.895-14.56 11.929-20.23 14.732-2.835 1.401-5.329 2.227-7.437 2.466-2.102.238-3.773-.11-5.039-.996-1.266-.887-2.165-2.338-2.659-4.395-.497-2.062-.574-4.688-.227-7.832.694-6.286 3.068-14.485 6.924-24.048 7.709-19.114 21.279-43.52 38.892-68.673 17.612-25.154 35.905-46.253 51.23-60.034 7.667-6.895 14.56-11.93 20.23-14.732 2.835-1.401 5.329-2.227 7.437-2.466 2.102-.238 3.773.11 5.039.996Z" opacity=".621"/><path d="M329.307-13.83c1.184.994 1.953 2.517 2.266 4.61.315 2.098.163 4.72-.457 7.822-1.239 6.202-4.318 14.163-8.993 23.353-9.345 18.37-24.991 41.5-44.729 65.022s-39.8 42.948-56.268 55.341c-8.239 6.2-15.544 10.614-21.436 12.912-2.947 1.149-5.503 1.754-7.624 1.808-2.115.055-3.749-.438-4.933-1.431s-1.953-2.517-2.266-4.609c-.315-2.099-.163-4.721.457-7.823 1.239-6.202 4.318-14.163 8.993-23.353 9.345-18.369 24.991-41.5 44.729-65.022s39.8-42.948 56.268-55.34c8.238-6.2 15.544-10.615 21.436-12.913 2.947-1.149 5.503-1.754 7.624-1.808 2.115-.055 3.749.438 4.933 1.431Z" opacity=".655"/><path d="M336.421-8.2c1.092 1.092 1.725 2.677 1.856 4.788.13 2.118-.25 4.717-1.137 7.753-1.776 6.07-5.537 13.733-10.995 22.48-10.911 17.486-28.513 39.164-50.226 60.877s-43.392 39.315-60.877 50.226c-8.748 5.458-16.41 9.219-22.48 10.995-3.036.888-5.635 1.267-7.753 1.137-2.111-.131-3.696-.763-4.789-1.856s-1.726-2.678-1.856-4.789c-.131-2.118.249-4.718 1.137-7.753 1.776-6.07 5.536-13.733 10.995-22.48 10.91-17.486 28.513-39.164 50.226-60.877s43.391-39.316 60.876-50.226c8.748-5.459 16.411-9.22 22.481-10.995 3.035-.888 5.635-1.267 7.752-1.137 2.112.13 3.697.763 4.79 1.856Z" opacity=".69"/><path d="M342.938-1.976c.994 1.184 1.486 2.818 1.432 4.933-.054 2.12-.659 4.677-1.808 7.624-2.298 5.892-6.712 13.197-12.913 21.436-12.393 16.468-31.817 36.53-55.34 56.268s-46.653 35.384-65.023 44.729c-9.19 4.675-17.151 7.754-23.353 8.993-3.101.62-5.724.772-7.822.457-2.092-.313-3.616-1.082-4.609-2.266-.994-1.184-1.486-2.818-1.432-4.933.055-2.121.66-4.677 1.809-7.624 2.297-5.892 6.712-13.198 12.912-21.436 12.393-16.468 31.818-36.53 55.34-56.268s46.653-35.384 65.023-44.729c9.19-4.675 17.151-7.754 23.353-8.993 3.101-.62 5.724-.772 7.822-.457 2.092.313 3.616 1.082 4.609 2.266Z" opacity=".724"/><path d="M348.812 4.788c.886 1.266 1.234 2.937.996 5.04-.239 2.107-1.065 4.601-2.466 7.437-2.803 5.67-7.837 12.562-14.732 20.23-13.781 15.324-34.88 33.617-60.033 51.23-25.154 17.612-49.56 31.183-68.674 38.891-9.563 3.857-17.762 6.23-24.048 6.924-3.144.347-5.769.27-7.832-.226-2.057-.495-3.508-1.394-4.394-2.66s-1.235-2.937-.997-5.039c.239-2.108 1.065-4.602 2.466-7.437 2.803-5.67 7.837-12.563 14.732-20.23 13.781-15.324 34.88-33.617 60.034-51.23s49.559-31.183 68.673-38.891c9.563-3.857 17.762-6.23 24.048-6.925 3.144-.347 5.77-.27 7.832.227 2.057.495 3.508 1.393 4.395 2.66Z" opacity=".759"/><path d="M353.995 12.037c.773 1.338.974 3.033.554 5.106-.422 2.08-1.462 4.492-3.105 7.194-3.286 5.404-8.902 11.832-16.439 18.87-15.064 14.065-37.677 30.449-64.27 45.802s-52.089 26.745-71.802 32.758c-9.862 3.009-18.237 4.658-24.56 4.802-3.162.072-5.771-.234-7.783-.908-2.006-.672-3.373-1.694-4.145-3.032-.773-1.339-.974-3.033-.554-5.107.422-2.079 1.462-4.492 3.105-7.194 3.286-5.404 8.902-11.832 16.439-18.869 15.064-14.065 37.677-30.45 64.27-45.803s52.089-26.745 71.802-32.758c9.862-3.008 18.237-4.658 24.56-4.802 3.162-.072 5.771.234 7.783.909 2.005.672 3.373 1.693 4.145 3.032Z" opacity=".793"/><path d="M358.45 19.706c.653 1.4.706 3.106.106 5.135-.601 2.035-1.847 4.347-3.72 6.896-3.744 5.097-9.899 11.011-18.02 17.365-16.233 12.699-40.188 27.05-68.018 40.027s-54.221 22.103-74.384 26.375c-10.087 2.138-18.573 3.051-24.885 2.643-3.156-.204-5.728-.736-7.674-1.583-1.939-.844-3.212-1.981-3.865-3.382s-.706-3.106-.106-5.135c.601-2.035 1.847-4.347 3.72-6.896 3.744-5.097 9.899-11.011 18.02-17.364 16.233-12.7 40.188-27.05 68.018-40.028s54.221-22.103 74.384-26.375c10.087-2.138 18.573-3.051 24.885-2.643 3.156.204 5.728.736 7.674 1.583 1.939.844 3.212 1.981 3.865 3.382Z" opacity=".828"/><path d="M362.143 27.73c.529 1.453.432 3.157-.342 5.125-.776 1.975-2.219 4.17-4.307 6.546-4.174 4.751-10.821 10.106-19.465 15.728-17.278 11.236-42.393 23.444-71.248 33.946-28.854 10.503-55.941 17.294-76.399 19.793-10.235 1.25-18.769 1.42-25.021.464-3.126-.479-5.643-1.233-7.507-2.246-1.858-1.011-3.027-2.254-3.556-3.706-.528-1.453-.432-3.157.342-5.125.777-1.975 2.22-4.17 4.307-6.546 4.175-4.751 10.821-10.106 19.465-15.728 17.278-11.235 42.393-23.444 71.248-33.946s55.942-17.294 76.399-19.793c10.235-1.25 18.769-1.42 25.021-.464 3.126.479 5.643 1.233 7.507 2.246 1.858 1.01 3.027 2.254 3.556 3.706Z" opacity=".862"/><path d="M365.044 36.043c.4 1.492.155 3.182-.787 5.075-.946 1.9-2.575 3.96-4.861 6.146-4.573 4.369-11.661 9.124-20.762 13.97-18.192 9.688-44.275 19.661-73.936 27.609-29.66 7.947-57.236 12.352-77.833 13.058-10.305.354-18.822-.221-24.966-1.718-3.073-.75-5.514-1.72-7.283-2.892-1.763-1.168-2.819-2.509-3.219-4.002s-.156-3.182.787-5.075c.946-1.9 2.574-3.96 4.861-6.146 4.573-4.37 11.661-9.124 20.762-13.971 18.191-9.687 44.275-19.66 73.935-27.608 29.66-7.947 57.236-12.352 77.834-13.058 10.305-.354 18.821.22 24.966 1.718 3.073.749 5.514 1.72 7.282 2.892 1.764 1.168 2.82 2.509 3.22 4.002Z" opacity=".897"/><path d="M367.132 44.572c.269 1.522-.122 3.184-1.226 4.988-1.108 1.81-2.91 3.721-5.378 5.698-4.936 3.954-12.412 8.074-21.901 12.109-18.966 8.065-45.82 15.727-76.06 21.059s-58.095 7.317-78.676 6.225c-10.296-.546-18.73-1.86-24.721-3.888-2.996-1.014-5.343-2.193-7.003-3.515-1.654-1.318-2.59-2.745-2.858-4.267s.122-3.184 1.227-4.988c1.107-1.81 2.909-3.721 5.378-5.698 4.936-3.955 12.411-8.074 21.9-12.109 18.967-8.065 45.82-15.727 76.06-21.059s58.095-7.317 78.676-6.225c10.297.546 18.73 1.86 24.721 3.888 2.996 1.014 5.343 2.193 7.003 3.515 1.655 1.318 2.59 2.745 2.858 4.267Z" opacity=".931"/><path d="M368.392 53.249c.134 1.54-.4 3.16-1.657 4.862-1.261 1.706-3.223 3.453-5.854 5.208-5.262 3.509-13.068 6.96-22.873 10.153-19.597 6.382-47.016 11.674-77.606 14.35s-58.511 2.226-78.919-.655c-10.21-1.442-18.497-3.486-24.288-6.028-2.896-1.271-5.131-2.651-6.67-4.112-1.533-1.457-2.341-2.96-2.475-4.5-.135-1.54.399-3.161 1.656-4.862 1.261-1.707 3.223-3.454 5.855-5.208 5.262-3.51 13.068-6.961 22.872-10.154 19.597-6.381 47.016-11.673 77.606-14.35s58.511-2.225 78.919.656c10.21 1.441 18.497 3.486 24.288 6.027 2.896 1.272 5.132 2.651 6.67 4.113 1.534 1.457 2.341 2.96 2.476 4.5Z" opacity=".966"/><path d="M368.813 62c0 1.545-.674 3.113-2.075 4.698-1.405 1.59-3.511 3.16-6.285 4.678-5.548 3.037-13.626 5.796-23.671 8.122-20.079 4.649-47.855 7.531-78.561 7.531s-58.483-2.882-78.562-7.531c-10.045-2.326-18.122-5.085-23.67-8.122-2.774-1.518-4.881-3.088-6.286-4.678-1.401-1.585-2.074-3.153-2.074-4.698s.673-3.114 2.074-4.7c1.405-1.59 3.512-3.159 6.286-4.677 5.548-3.037 13.625-5.796 23.67-8.122 20.079-4.649 47.855-7.531 78.562-7.531 30.706 0 58.482 2.882 78.561 7.531 10.045 2.326 18.123 5.085 23.671 8.122 2.774 1.518 4.88 3.088 6.285 4.678 1.401 1.585 2.075 3.153 2.075 4.698Z"/></g></svg>